<svg class="main-svg" xmlns="http://www.w3.org/2000/svg" xmlns:xlink="http://www.w3.org/1999/xlink" width="2200" height="1000" style="" viewBox="0 0 1100 500"><rect x="0" y="0" width="1100" height="500" style="fill: rgb(255, 255, 255); fill-opacity: 1;"/><defs id="defs-b13327"><g class="clips"><clipPath id="clipb13327xyplot" class="plotclip"><rect width="1022" height="385"/></clipPath><clipPath class="axesclip" id="clipb13327x"><rect x="61" y="0" width="1022" height="500"/></clipPath><clipPath class="axesclip" id="clipb13327y"><rect x="0" y="50" width="1100" height="385"/></clipPath><clipPath class="axesclip" id="clipb13327xy"><rect x="61" y="50" width="1022" height="385"/></clipPath></g><g class="gradients"/><g class="patterns"/></defs><g class="bglayer"/><g class="layer-below"><g class="imagelayer"/><g class="shapelayer"/></g><g class="cartesianlayer"><g class="subplot xy"><g class="layer-subplot"><g class="shapelayer"/><g class="imagelayer"/></g><g class="minor-gridlayer"><g class="x"/><g class="y"/></g><g class="gridlayer"><g class="x"><path class="xgrid crisp" transform="translate(261.31,0)" d="M0,50v385" style="stroke: rgb(0, 0, 0); stroke-opacity: 0.05; stroke-width: 1px;"/><path class="xgrid crisp" transform="translate(465.71,0)" d="M0,50v385" style="stroke: rgb(0, 0, 0); stroke-opacity: 0.05; stroke-width: 1px;"/><path class="xgrid crisp" transform="translate(670.11,0)" d="M0,50v385" style="stroke: rgb(0, 0, 0); stroke-opacity: 0.05; stroke-width: 1px;"/><path class="xgrid crisp" transform="translate(874.51,0)" d="M0,50v385" style="stroke: rgb(0, 0, 0); stroke-opacity: 0.05; stroke-width: 1px;"/><path class="xgrid crisp" transform="translate(1078.9099999999999,0)" d="M0,50v385" style="stroke: rgb(0, 0, 0); stroke-opacity: 0.05; stroke-width: 1px;"/></g><g class="y"><path class="ygrid crisp" transform="translate(0,358)" d="M61,0h1022" style="stroke: rgb(0, 0, 0); stroke-opacity: 0.05; stroke-width: 1px;"/><path class="ygrid crisp" transform="translate(0,281)" d="M61,0h1022" style="stroke: rgb(0, 0, 0); stroke-opacity: 0.05; stroke-width: 1px;"/><path class="ygrid crisp" transform="translate(0,204)" d="M61,0h1022" style="stroke: rgb(0, 0, 0); stroke-opacity: 0.05; stroke-width: 1px;"/><path class="ygrid crisp" transform="translate(0,127)" d="M61,0h1022" style="stroke: rgb(0, 0, 0); stroke-opacity: 0.05; stroke-width: 1px;"/></g></g><g class="zerolinelayer"><path class="yzl zl crisp" transform="translate(0,435)" d="M61,0h1022" style="stroke: rgb(0, 0, 0); stroke-opacity: 0.05; stroke-width: 1px;"/></g><g class="layer-between"><g class="shapelayer"/><g class="imagelayer"/></g><path class="xlines-below"/><path class="ylines-below"/><g class="overlines-below"/><g class="xaxislayer-below"/><g class="yaxislayer-below"/><g class="overaxes-below"/><g class="overplot"><g class="xy" transform="translate(61,50)" clip-path="url(#clipb13327xyplot)"><g class="scatterlayer mlayer"><g class="trace scatter trace7d723b" style="stroke-miterlimit: 2; opacity: 1;"><g class="fills"/><g class="errorbars"/><g class="lines"><path class="js-line" d="M0,178.83L4.09,214.01L8.18,211.2L12.26,207.2L16.35,220.03L20.44,199.19L24.53,221.79L28.62,202.98L32.7,228.19L36.79,210.62L40.88,216.59L44.97,201.15L49.06,202.77L53.14,220.46L57.23,212.71L61.32,223.27L65.41,217.66L69.5,207.65L73.58,211.88L77.67,207.15L81.76,205.36L85.85,206.8L89.94,218.29L94.02,217.39L98.11,229.02L102.2,208.11L106.29,196.11L110.38,222.62L114.46,209.17L118.55,206.47L122.64,233.06L130.82,229.46L134.9,225.1L138.99,212.74L143.08,218.62L147.17,224.9L151.26,223.29L155.34,228.56L159.43,210.06L163.52,221.11L167.61,213.03L171.7,215.32L175.78,216.27L179.87,216.34L183.96,225.83L188.05,220.84L192.14,221.48L196.22,228.91L200.31,222.55L204.4,220.63L208.49,217.13L212.58,207.95L216.66,211.32L220.75,212.44L224.84,203.48L228.93,225.2L233.02,213.2L237.1,191.64L241.19,202.89L249.37,201.38L253.46,205.88L257.54,214.6L261.63,206.72L265.72,194.46L269.81,203.72L273.9,200.14L277.98,210.26L282.07,214.67L286.16,205.21L290.25,205.34L294.34,211.38L298.42,228.28L302.51,222.18L306.6,208.06L310.69,215.43L314.78,217.1L318.86,222.13L322.95,239.07L327.04,207.48L331.13,229.63L335.22,213.62L339.3,221.42L343.39,212.71L347.48,211.81L351.57,201.85L355.66,212.28L359.74,208.65L363.83,209.45L367.92,227.71L372.01,199.16L376.1,220.63L380.18,229.38L384.27,230.49L388.36,218.23L392.45,225L396.54,218.02L400.62,212.92L404.71,222.44L408.8,220.29L412.89,209.04L416.98,222.49L421.06,207.31L425.15,212.61L429.24,202.72L433.33,195.79L437.42,207.98L441.5,196.9L445.59,196.61L449.68,204.24L453.77,200.81L457.86,201.27L461.94,201.83L466.03,187.7L470.12,198.25L474.21,202.87L478.3,210.24L482.38,221.5L486.47,219.25L490.56,231.51L494.65,240.56L498.74,228.44L502.82,234.07L506.91,234.08L511,247.94L515.09,252.36L519.18,227.84L523.26,229.08L527.35,231.8L531.44,241.68L535.53,241.5L539.62,232.43L543.7,244.95L547.79,218.44L551.88,218.89L555.97,231.52L560.06,217.68L564.14,223.78L568.23,222.04L572.32,216.54L576.41,202.76L580.5,219.48L584.58,205.18L588.67,215.43L592.76,220.39L596.85,204.8L600.94,213.28L605.02,213.41L609.11,215L613.2,205.8L617.29,216.28L621.38,211.49L625.46,200.97L629.55,207.74L633.64,217.35L637.73,205.42L641.82,205.99L645.9,200.73L649.99,218.92L654.08,209.49L658.17,201.5L662.26,225.92L666.34,203.76L670.43,200.85L674.52,215.71L678.61,216.22L682.7,205.9L686.78,198.55L690.87,215.9L694.96,212.21L699.05,220.29L703.14,212.93L707.22,205.77L711.31,212.6L715.4,213.73L719.49,212.65L723.58,219.33L727.66,220.8L731.75,211.95L735.84,215.45L744.02,205.86L748.1,227.68L756.28,211.02L760.37,216.47L764.46,210.79L768.54,215.54L772.63,206.95L776.72,217.45L780.81,214.96L784.9,216.03L788.98,202.9L793.07,221.66L797.16,204.09L801.25,208.91L805.34,212.51L809.42,228.15L813.51,216.91L817.6,217.4L821.69,209.36L825.78,225.92L829.86,206.53L833.95,220.1L838.04,218.15L842.13,221.8L846.22,206.11L850.3,219.7L854.39,220.95L858.48,217.7L862.57,207.82L866.66,218.07L874.83,216.91L878.92,216.11L883.01,223.55L887.1,201.85L891.18,213.46L895.27,207.24L899.36,233.06L903.45,208.78L907.54,213.28L911.62,213.74L915.71,205.47L919.8,231.78L923.89,187.1L927.98,221.45L932.06,236.35L936.15,196.61L940.24,191.85L944.33,183.38L948.42,214.49L952.5,222.4L956.59,192.34L960.68,223.64L964.77,187.19L968.86,183.41L972.94,167.69L977.03,210.64L981.12,170.52L985.21,182.27L989.3,201.38L993.38,182.49L997.47,196.47L1001.56,227.42L1009.74,164.05L1013.82,156.44L1017.91,212.97L1022,207.53" style="vector-effect: none; fill: none; stroke: rgb(124, 181, 236); stroke-opacity: 1; stroke-width: 2px; opacity: 1;"/></g><g class="points"/><g class="text"/></g></g></g></g><g class="zerolinelayer-above"/><path class="xlines-above crisp" d="M0,0" style="fill: none;"/><path class="ylines-above crisp" d="M0,0" style="fill: none;"/><g class="overlines-above"/><g class="xaxislayer-above"><g class="xtick"><text text-anchor="middle" x="0" y="451" transform="translate(261.31,0)" style="font-family: 'Lucida Grande', 'Open Sans', verdana, arial, sans-serif; font-size: 10px; fill: rgb(0, 0, 0); fill-opacity: 1; white-space: pre;">50</text></g><g class="xtick"><text text-anchor="middle" x="0" y="451" style="font-family: 'Lucida Grande', 'Open Sans', verdana, arial, sans-serif; font-size: 10px; fill: rgb(0, 0, 0); fill-opacity: 1; white-space: pre;" transform="translate(465.71,0)">100</text></g><g class="xtick"><text text-anchor="middle" x="0" y="451" style="font-family: 'Lucida Grande', 'Open Sans', verdana, arial, sans-serif; font-size: 10px; fill: rgb(0, 0, 0); fill-opacity: 1; white-space: pre;" transform="translate(670.11,0)">150</text></g><g class="xtick"><text text-anchor="middle" x="0" y="451" style="font-family: 'Lucida Grande', 'Open Sans', verdana, arial, sans-serif; font-size: 10px; fill: rgb(0, 0, 0); fill-opacity: 1; white-space: pre;" transform="translate(874.51,0)">200</text></g><g class="xtick"><text text-anchor="middle" x="0" y="451" style="font-family: 'Lucida Grande', 'Open Sans', verdana, arial, sans-serif; font-size: 10px; fill: rgb(0, 0, 0); fill-opacity: 1; white-space: pre;" transform="translate(1078.9099999999999,0)">250</text></g></g><g class="yaxislayer-above"><g class="ytick"><text text-anchor="end" x="55" y="3.5" transform="translate(0,435)" style="font-family: 'Lucida Grande', 'Open Sans', verdana, arial, sans-serif; font-size: 10px; fill: rgb(0, 0, 0); fill-opacity: 1; white-space: pre;">0%</text></g><g class="ytick"><text text-anchor="end" x="55" y="3.5" style="font-family: 'Lucida Grande', 'Open Sans', verdana, arial, sans-serif; font-size: 10px; fill: rgb(0, 0, 0); fill-opacity: 1; white-space: pre;" transform="translate(0,358)">20%</text></g><g class="ytick"><text text-anchor="end" x="55" y="3.5" style="font-family: 'Lucida Grande', 'Open Sans', verdana, arial, sans-serif; font-size: 10px; fill: rgb(0, 0, 0); fill-opacity: 1; white-space: pre;" transform="translate(0,281)">40%</text></g><g class="ytick"><text text-anchor="end" x="55" y="3.5" style="font-family: 'Lucida Grande', 'Open Sans', verdana, arial, sans-serif; font-size: 10px; fill: rgb(0, 0, 0); fill-opacity: 1; white-space: pre;" transform="translate(0,204)">60%</text></g><g class="ytick"><text text-anchor="end" x="55" y="3.5" style="font-family: 'Lucida Grande', 'Open Sans', verdana, arial, sans-serif; font-size: 10px; fill: rgb(0, 0, 0); fill-opacity: 1; white-space: pre;" transform="translate(0,127)">80%</text></g><g class="ytick"><text text-anchor="end" x="55" y="3.5" style="font-family: 'Lucida Grande', 'Open Sans', verdana, arial, sans-serif; font-size: 10px; fill: rgb(0, 0, 0); fill-opacity: 1; white-space: pre;" transform="translate(0,50)">100%</text></g></g><g class="overaxes-above"/></g></g><g class="polarlayer"/><g class="smithlayer"/><g class="ternarylayer"/><g class="geolayer"/><g class="funnelarealayer"/><g class="pielayer"/><g class="iciclelayer"/><g class="treemaplayer"/><g class="sunburstlayer"/><g class="glimages"/><defs id="topdefs-b13327"><g class="clips"/></defs><g class="layer-above"><g class="imagelayer"/><g class="shapelayer"/></g><g class="infolayer"><g class="g-gtitle"><text class="gtitle" x="550" y="25" text-anchor="middle" dy="0em" style="opacity: 1; font-family: 'Lucida Grande', 'Open Sans', verdana, arial, sans-serif; font-size: 20px; fill: rgb(68, 68, 68); fill-opacity: 1; white-space: pre;"><tspan class="line" dy="0em" x="550" y="25">Fastp: Read GC Content</tspan><tspan class="line" dy="1.3em" x="550" y="25">​<tspan style="font-size:70%" dy="-0.6em">Read 2: Before filtering</tspan><tspan dy="0.42em">​</tspan></tspan></text></g><g class="g-xtitle"><text class="xtitle" x="572" y="487" text-anchor="middle" style="opacity: 0.3; font-family: 'Lucida Grande', 'Open Sans', verdana, arial, sans-serif; font-size: 14px; fill: rgb(0, 0, 0); fill-opacity: 1; white-space: pre;">Read Position</text></g><g class="g-ytitle"><text class="ytitle" transform="rotate(-90,23,242.5)" x="23" y="242.5" text-anchor="middle" style="opacity: 0.3; font-family: 'Lucida Grande', 'Open Sans', verdana, arial, sans-serif; font-size: 14px; fill: rgb(0, 0, 0); fill-opacity: 1; white-space: pre;">R2 Before filtering: Base Content Percent</text></g></g></svg>