<svg class="main-svg" xmlns="http://www.w3.org/2000/svg" xmlns:xlink="http://www.w3.org/1999/xlink" width="2200" height="1000" style="" viewBox="0 0 1100 500"><rect x="0" y="0" width="1100" height="500" style="fill: rgb(255, 255, 255); fill-opacity: 1;"/><defs id="defs-ed619c"><g class="clips"><clipPath id="cliped619cxyplot" class="plotclip"><rect width="1022" height="385"/></clipPath><clipPath class="axesclip" id="cliped619cx"><rect x="61" y="0" width="1022" height="500"/></clipPath><clipPath class="axesclip" id="cliped619cy"><rect x="0" y="50" width="1100" height="385"/></clipPath><clipPath class="axesclip" id="cliped619cxy"><rect x="61" y="50" width="1022" height="385"/></clipPath></g><g class="gradients"/><g class="patterns"/></defs><g class="bglayer"/><g class="layer-below"><g class="imagelayer"/><g class="shapelayer"/></g><g class="cartesianlayer"><g class="subplot xy"><g class="layer-subplot"><g class="shapelayer"/><g class="imagelayer"/></g><g class="minor-gridlayer"><g class="x"/><g class="y"/></g><g class="gridlayer"><g class="x"><path class="xgrid crisp" transform="translate(261.31,0)" d="M0,50v385" style="stroke: rgb(0, 0, 0); stroke-opacity: 0.05; stroke-width: 1px;"/><path class="xgrid crisp" transform="translate(465.71,0)" d="M0,50v385" style="stroke: rgb(0, 0, 0); stroke-opacity: 0.05; stroke-width: 1px;"/><path class="xgrid crisp" transform="translate(670.11,0)" d="M0,50v385" style="stroke: rgb(0, 0, 0); stroke-opacity: 0.05; stroke-width: 1px;"/><path class="xgrid crisp" transform="translate(874.51,0)" d="M0,50v385" style="stroke: rgb(0, 0, 0); stroke-opacity: 0.05; stroke-width: 1px;"/><path class="xgrid crisp" transform="translate(1078.9099999999999,0)" d="M0,50v385" style="stroke: rgb(0, 0, 0); stroke-opacity: 0.05; stroke-width: 1px;"/></g><g class="y"><path class="ygrid crisp" transform="translate(0,358)" d="M61,0h1022" style="stroke: rgb(0, 0, 0); stroke-opacity: 0.05; stroke-width: 1px;"/><path class="ygrid crisp" transform="translate(0,281)" d="M61,0h1022" style="stroke: rgb(0, 0, 0); stroke-opacity: 0.05; stroke-width: 1px;"/><path class="ygrid crisp" transform="translate(0,204)" d="M61,0h1022" style="stroke: rgb(0, 0, 0); stroke-opacity: 0.05; stroke-width: 1px;"/><path class="ygrid crisp" transform="translate(0,127)" d="M61,0h1022" style="stroke: rgb(0, 0, 0); stroke-opacity: 0.05; stroke-width: 1px;"/></g></g><g class="zerolinelayer"><path class="yzl zl crisp" transform="translate(0,435)" d="M61,0h1022" style="stroke: rgb(0, 0, 0); stroke-opacity: 0.05; stroke-width: 1px;"/></g><g class="layer-between"><g class="shapelayer"/><g class="imagelayer"/></g><path class="xlines-below"/><path class="ylines-below"/><g class="overlines-below"/><g class="xaxislayer-below"/><g class="yaxislayer-below"/><g class="overaxes-below"/><g class="overplot"><g class="xy" transform="translate(61,50)" clip-path="url(#cliped619cxyplot)"><g class="scatterlayer mlayer"><g class="trace scatter trace099cf3" style="stroke-miterlimit: 2; opacity: 1;"><g class="fills"/><g class="errorbars"/><g class="lines"><path class="js-line" d="M0,204.98L4.09,205.76L8.18,232.49L12.26,212.84L16.35,207.95L20.44,209.57L24.53,216.05L28.62,205.49L32.7,219.17L36.79,218.69L40.88,221.61L44.97,238.03L49.06,218.8L53.14,214.48L57.23,228.22L61.32,205.31L65.41,218.61L69.5,212.24L73.58,230.88L77.67,219.68L81.76,229.51L85.85,212.71L89.94,217.38L94.02,226.95L98.11,225.94L102.2,211.19L106.29,227.21L114.46,232.08L118.55,216.69L122.64,233.92L126.73,212.26L130.82,243.16L134.9,208.56L138.99,223.78L143.08,208.81L147.17,205.54L151.26,227.23L155.34,234.81L159.43,218.33L163.52,225.09L167.61,222.33L171.7,203.3L175.78,222.59L179.87,208.82L183.96,202.38L188.05,225.34L192.14,214.1L196.22,220.24L200.31,217.96L204.4,221.9L208.49,205.59L212.58,215.02L216.66,211.27L220.75,195.44L224.84,194.09L233.02,214.64L237.1,228.31L241.19,224.27L245.28,224.13L249.37,223.2L253.46,195.25L257.54,209.02L261.63,216.65L265.72,227.86L269.81,213.58L273.9,213.14L277.98,217.57L282.07,203.05L286.16,216.1L290.25,227.12L294.34,211.16L298.42,224.14L302.51,212.62L306.6,221.3L310.69,221.5L314.78,223.98L318.86,248.32L322.95,216.5L327.04,212.85L335.22,194.49L339.3,210.82L343.39,200.03L347.48,193.64L355.66,221.95L359.74,221.77L363.83,216.02L367.92,204.05L372.01,215.13L376.1,198.63L380.18,217.48L384.27,196.61L388.36,214.62L392.45,222.38L396.54,204.12L400.62,228.32L404.71,207.77L408.8,204.1L412.89,220.7L416.98,204.05L421.06,212.7L425.15,209.02L429.24,197.96L433.33,198.57L437.42,191.8L441.5,214.39L445.59,200.82L449.68,230.3L453.77,222.81L457.86,188.65L461.94,201.16L466.03,200.63L470.12,203.78L474.21,219.85L478.3,227.51L482.38,221.98L486.47,223.42L490.56,222.33L494.65,223.01L498.74,249.7L502.82,236.98L506.91,237.56L511,245.58L515.09,234.49L519.18,227.44L523.26,246.52L527.35,238.67L531.44,238.88L535.53,229.14L539.62,227.63L543.7,218.92L547.79,234.19L551.88,231.44L555.97,227.05L560.06,240.88L564.14,228.1L568.23,221.91L572.32,211.31L576.41,234.38L580.5,210.52L584.58,226.37L588.67,217.11L592.76,220.42L596.85,228.51L600.94,234.32L605.02,213.93L609.11,219.71L613.2,227.57L621.38,226.45L625.46,227L629.55,203.28L633.64,226.08L637.73,224.09L641.82,218.54L645.9,215.26L649.99,225.29L654.08,218.02L658.17,225.34L662.26,226.26L666.34,199.23L670.43,230.06L674.52,219L678.61,215.11L682.7,229.62L686.78,233.13L690.87,212.82L694.96,220.03L699.05,218.81L703.14,221.39L707.22,211.3L711.31,223.55L715.4,219.45L719.49,230.04L723.58,225.05L727.66,221.97L731.75,220.47L735.84,232.13L739.93,219.83L744.02,212.4L748.1,222.98L752.19,214.49L756.28,218.17L760.37,214.77L764.46,226.26L768.54,212.1L772.63,222.63L776.72,214.37L780.81,223.64L784.9,232.2L788.98,211.39L793.07,233.12L797.16,231.29L801.25,212.76L805.34,229.58L809.42,215.12L813.51,217.73L817.6,218.72L821.69,222.75L825.78,227.75L829.86,211L833.95,218.5L838.04,217.32L846.22,225.88L850.3,228.68L854.39,222.04L858.48,219.71L862.57,229.84L866.66,236.72L870.74,222.28L874.83,222.94L878.92,216.02L883.01,213.7L887.1,214.02L891.18,218.98L895.27,211.88L899.36,223.43L903.45,221.87L907.54,218.05L911.62,211.05L915.71,206.06L919.8,187.27L923.89,185.02L927.98,176.01L932.06,216.83L936.15,217.31L940.24,232.68L944.33,246.19L948.42,239.81L952.5,208.27L956.59,196.97L960.68,225.88L964.77,204.69L968.86,198.85L972.94,212.99L977.03,221.5L981.12,185.91L985.21,175.62L989.3,225.35L993.38,225.98L997.47,193.75L1001.56,179.88L1005.65,226.04L1009.74,225.37L1013.82,231.65L1017.91,237.64L1022,239.44" style="vector-effect: none; fill: none; stroke: rgb(124, 181, 236); stroke-opacity: 1; stroke-width: 2px; opacity: 1;"/></g><g class="points"/><g class="text"/></g></g></g></g><g class="zerolinelayer-above"/><path class="xlines-above crisp" d="M0,0" style="fill: none;"/><path class="ylines-above crisp" d="M0,0" style="fill: none;"/><g class="overlines-above"/><g class="xaxislayer-above"><g class="xtick"><text text-anchor="middle" x="0" y="451" transform="translate(261.31,0)" style="font-family: 'Lucida Grande', 'Open Sans', verdana, arial, sans-serif; font-size: 10px; fill: rgb(0, 0, 0); fill-opacity: 1; white-space: pre;">50</text></g><g class="xtick"><text text-anchor="middle" x="0" y="451" style="font-family: 'Lucida Grande', 'Open Sans', verdana, arial, sans-serif; font-size: 10px; fill: rgb(0, 0, 0); fill-opacity: 1; white-space: pre;" transform="translate(465.71,0)">100</text></g><g class="xtick"><text text-anchor="middle" x="0" y="451" style="font-family: 'Lucida Grande', 'Open Sans', verdana, arial, sans-serif; font-size: 10px; fill: rgb(0, 0, 0); fill-opacity: 1; white-space: pre;" transform="translate(670.11,0)">150</text></g><g class="xtick"><text text-anchor="middle" x="0" y="451" style="font-family: 'Lucida Grande', 'Open Sans', verdana, arial, sans-serif; font-size: 10px; fill: rgb(0, 0, 0); fill-opacity: 1; white-space: pre;" transform="translate(874.51,0)">200</text></g><g class="xtick"><text text-anchor="middle" x="0" y="451" style="font-family: 'Lucida Grande', 'Open Sans', verdana, arial, sans-serif; font-size: 10px; fill: rgb(0, 0, 0); fill-opacity: 1; white-space: pre;" transform="translate(1078.9099999999999,0)">250</text></g></g><g class="yaxislayer-above"><g class="ytick"><text text-anchor="end" x="55" y="3.5" transform="translate(0,435)" style="font-family: 'Lucida Grande', 'Open Sans', verdana, arial, sans-serif; font-size: 10px; fill: rgb(0, 0, 0); fill-opacity: 1; white-space: pre;">0%</text></g><g class="ytick"><text text-anchor="end" x="55" y="3.5" style="font-family: 'Lucida Grande', 'Open Sans', verdana, arial, sans-serif; font-size: 10px; fill: rgb(0, 0, 0); fill-opacity: 1; white-space: pre;" transform="translate(0,358)">20%</text></g><g class="ytick"><text text-anchor="end" x="55" y="3.5" style="font-family: 'Lucida Grande', 'Open Sans', verdana, arial, sans-serif; font-size: 10px; fill: rgb(0, 0, 0); fill-opacity: 1; white-space: pre;" transform="translate(0,281)">40%</text></g><g class="ytick"><text text-anchor="end" x="55" y="3.5" style="font-family: 'Lucida Grande', 'Open Sans', verdana, arial, sans-serif; font-size: 10px; fill: rgb(0, 0, 0); fill-opacity: 1; white-space: pre;" transform="translate(0,204)">60%</text></g><g class="ytick"><text text-anchor="end" x="55" y="3.5" style="font-family: 'Lucida Grande', 'Open Sans', verdana, arial, sans-serif; font-size: 10px; fill: rgb(0, 0, 0); fill-opacity: 1; white-space: pre;" transform="translate(0,127)">80%</text></g><g class="ytick"><text text-anchor="end" x="55" y="3.5" style="font-family: 'Lucida Grande', 'Open Sans', verdana, arial, sans-serif; font-size: 10px; fill: rgb(0, 0, 0); fill-opacity: 1; white-space: pre;" transform="translate(0,50)">100%</text></g></g><g class="overaxes-above"/></g></g><g class="polarlayer"/><g class="smithlayer"/><g class="ternarylayer"/><g class="geolayer"/><g class="funnelarealayer"/><g class="pielayer"/><g class="iciclelayer"/><g class="treemaplayer"/><g class="sunburstlayer"/><g class="glimages"/><defs id="topdefs-ed619c"><g class="clips"/></defs><g class="layer-above"><g class="imagelayer"/><g class="shapelayer"/></g><g class="infolayer"><g class="g-gtitle"><text class="gtitle" x="550" y="25" text-anchor="middle" dy="0em" style="opacity: 1; font-family: 'Lucida Grande', 'Open Sans', verdana, arial, sans-serif; font-size: 20px; fill: rgb(68, 68, 68); fill-opacity: 1; white-space: pre;"><tspan class="line" dy="0em" x="550" y="25">Fastp: Read GC Content</tspan><tspan class="line" dy="1.3em" x="550" y="25">​<tspan style="font-size:70%" dy="-0.6em">Read 1: Before filtering</tspan><tspan dy="0.42em">​</tspan></tspan></text></g><g class="g-xtitle"><text class="xtitle" x="572" y="487" text-anchor="middle" style="opacity: 0.3; font-family: 'Lucida Grande', 'Open Sans', verdana, arial, sans-serif; font-size: 14px; fill: rgb(0, 0, 0); fill-opacity: 1; white-space: pre;">Read Position</text></g><g class="g-ytitle"><text class="ytitle" transform="rotate(-90,23,242.5)" x="23" y="242.5" text-anchor="middle" style="opacity: 0.3; font-family: 'Lucida Grande', 'Open Sans', verdana, arial, sans-serif; font-size: 14px; fill: rgb(0, 0, 0); fill-opacity: 1; white-space: pre;">R1 Before filtering: Base Content Percent</text></g></g></svg>