<svg class="main-svg" xmlns="http://www.w3.org/2000/svg" xmlns:xlink="http://www.w3.org/1999/xlink" width="2200" height="1000" style="" viewBox="0 0 1100 500"><rect x="0" y="0" width="1100" height="500" style="fill: rgb(255, 255, 255); fill-opacity: 1;"/><defs id="defs-556975"><g class="clips"><clipPath id="clip556975xyplot" class="plotclip"><rect width="1022" height="385"/></clipPath><clipPath class="axesclip" id="clip556975x"><rect x="61" y="0" width="1022" height="500"/></clipPath><clipPath class="axesclip" id="clip556975y"><rect x="0" y="50" width="1100" height="385"/></clipPath><clipPath class="axesclip" id="clip556975xy"><rect x="61" y="50" width="1022" height="385"/></clipPath></g><g class="gradients"/><g class="patterns"/></defs><g class="bglayer"/><g class="layer-below"><g class="imagelayer"/><g class="shapelayer"/></g><g class="cartesianlayer"><g class="subplot xy"><g class="layer-subplot"><g class="shapelayer"/><g class="imagelayer"/></g><g class="minor-gridlayer"><g class="x"/><g class="y"/></g><g class="gridlayer"><g class="x"><path class="xgrid crisp" transform="translate(261.31,0)" d="M0,50v385" style="stroke: rgb(0, 0, 0); stroke-opacity: 0.05; stroke-width: 1px;"/><path class="xgrid crisp" transform="translate(465.71,0)" d="M0,50v385" style="stroke: rgb(0, 0, 0); stroke-opacity: 0.05; stroke-width: 1px;"/><path class="xgrid crisp" transform="translate(670.11,0)" d="M0,50v385" style="stroke: rgb(0, 0, 0); stroke-opacity: 0.05; stroke-width: 1px;"/><path class="xgrid crisp" transform="translate(874.51,0)" d="M0,50v385" style="stroke: rgb(0, 0, 0); stroke-opacity: 0.05; stroke-width: 1px;"/><path class="xgrid crisp" transform="translate(1078.9099999999999,0)" d="M0,50v385" style="stroke: rgb(0, 0, 0); stroke-opacity: 0.05; stroke-width: 1px;"/></g><g class="y"><path class="ygrid crisp" transform="translate(0,358)" d="M61,0h1022" style="stroke: rgb(0, 0, 0); stroke-opacity: 0.05; stroke-width: 1px;"/><path class="ygrid crisp" transform="translate(0,281)" d="M61,0h1022" style="stroke: rgb(0, 0, 0); stroke-opacity: 0.05; stroke-width: 1px;"/><path class="ygrid crisp" transform="translate(0,204)" d="M61,0h1022" style="stroke: rgb(0, 0, 0); stroke-opacity: 0.05; stroke-width: 1px;"/><path class="ygrid crisp" transform="translate(0,127)" d="M61,0h1022" style="stroke: rgb(0, 0, 0); stroke-opacity: 0.05; stroke-width: 1px;"/></g></g><g class="zerolinelayer"><path class="yzl zl crisp" transform="translate(0,435)" d="M61,0h1022" style="stroke: rgb(0, 0, 0); stroke-opacity: 0.05; stroke-width: 1px;"/></g><g class="layer-between"><g class="shapelayer"/><g class="imagelayer"/></g><path class="xlines-below"/><path class="ylines-below"/><g class="overlines-below"/><g class="xaxislayer-below"/><g class="yaxislayer-below"/><g class="overaxes-below"/><g class="overplot"><g class="xy" transform="translate(61,50)" clip-path="url(#clip556975xyplot)"><g class="scatterlayer mlayer"><g class="trace scatter trace9db9e2" style="stroke-miterlimit: 2; opacity: 1;"><g class="fills"/><g class="errorbars"/><g class="lines"><path class="js-line" d="M0,205.21L4.09,206.36L8.18,232.31L12.26,213.65L16.35,207.72L20.44,209.31L24.53,217.48L28.62,205.55L32.7,220.41L36.79,219.27L40.88,220.89L44.97,238.71L49.06,219.24L53.14,214.93L57.23,229.79L61.32,206.66L65.41,218.05L69.5,212.75L73.58,231.49L77.67,220.45L81.76,230.45L85.85,214.53L89.94,218.88L94.02,227.65L98.11,225.32L102.2,212.52L106.29,228.62L110.38,229.14L114.46,231.99L118.55,217.41L122.64,234.5L126.73,211.91L130.82,244.85L134.9,208.03L138.99,225.34L143.08,209.96L147.17,205.99L151.26,229.05L155.34,235.53L159.43,218.09L163.52,225.7L167.61,223.57L171.7,202.82L175.78,223.82L179.87,210.39L183.96,203.03L188.05,225.9L192.14,214.32L196.22,220.85L200.31,218.23L204.4,222.55L208.49,205.61L212.58,216.53L216.66,211.72L220.75,195.82L224.84,193.55L228.93,203.98L233.02,215.08L237.1,228.95L241.19,224.56L245.28,224.11L249.37,223.71L253.46,194.59L257.54,208.65L261.63,218.27L265.72,227.62L269.81,215L273.9,213.64L277.98,217.36L282.07,202.56L286.16,216.38L290.25,226.45L294.34,211.48L298.42,224.76L302.51,211.78L306.6,220.84L310.69,220.77L314.78,223.52L318.86,248.14L322.95,217.24L327.04,212.33L335.22,193.88L339.3,210.83L343.39,199.78L347.48,193.29L351.57,209.44L355.66,222.08L359.74,222.48L363.83,217.05L367.92,204L372.01,215.85L376.1,198.41L380.18,217.37L384.27,197.24L388.36,213.98L392.45,222.25L396.54,204.45L400.62,228.95L404.71,207.86L408.8,203.7L412.89,220.42L416.98,204.68L421.06,213.45L425.15,208.87L429.24,198.59L433.33,198.24L437.42,192.56L441.5,215.45L445.59,201.59L449.68,229.86L453.77,222.82L457.86,188.01L461.94,200.9L466.03,201.06L470.12,203.25L474.21,219.25L478.3,227.45L482.38,222.67L486.47,224.03L490.56,222.11L494.65,223.56L498.74,249.56L502.82,236.72L506.91,237.56L511,245.47L515.09,233.99L519.18,227.12L523.26,247.5L527.35,238.82L531.44,239.8L535.53,230.23L539.62,228.66L543.7,218.33L547.79,234.27L551.88,231.58L555.97,226.99L560.06,241.12L564.14,227.93L568.23,221.77L572.32,211.26L576.41,234.53L580.5,211.28L584.58,226.33L588.67,217.08L592.76,220.4L596.85,228.28L600.94,234.24L605.02,213.81L609.11,219.7L613.2,227.47L617.29,226.67L625.46,227.06L629.55,203.19L633.64,226.23L637.73,224.39L641.82,218.48L645.9,215.11L649.99,225.53L654.08,217.83L658.17,225.48L662.26,226.53L666.34,199.14L670.43,230.25L674.52,219.26L678.61,215.24L682.7,229.57L686.78,233.64L690.87,212.85L694.96,220.42L699.05,219.45L703.14,221.86L707.22,211.61L711.31,224.52L715.4,220.4L719.49,230.81L723.58,225.77L727.66,222.77L731.75,221.33L735.84,232.8L739.93,220.9L744.02,213.06L748.1,224.03L752.19,214.74L756.28,219.11L760.37,215.17L764.46,227.07L768.54,212.91L772.63,223.53L776.72,214.61L784.9,233.25L788.98,211.73L793.07,234.02L797.16,231.97L801.25,213.02L805.34,230.04L809.42,215.57L813.51,217.88L817.6,218.6L821.69,222.76L825.78,227.91L829.86,210.99L833.95,218.99L838.04,217.41L846.22,226.5L850.3,229.57L854.39,222.55L858.48,220.33L862.57,230.39L866.66,237.66L870.74,223.23L874.83,223.57L878.92,217.13L883.01,214.71L887.1,214.96L891.18,219.97L895.27,212.72L899.36,224.56L903.45,222.6L907.54,219.18L911.62,212.09L915.71,206.88L919.8,188.03L923.89,185.46L927.98,176.22L932.06,217.46L936.15,217.8L940.24,233.37L944.33,247.07L948.42,240.92L952.5,208.85L956.59,197.29L960.68,226.36L964.77,205.24L968.86,199.22L972.94,213.47L977.03,221.94L981.12,185.88L985.21,175.54L989.3,226.01L993.38,226.35L997.47,193.93L1001.56,179.65L1005.65,226.76L1009.74,225.86L1013.82,232.21L1017.91,238.13L1022,240.17" style="vector-effect: none; fill: none; stroke: rgb(124, 181, 236); stroke-opacity: 1; stroke-width: 2px; opacity: 1;"/></g><g class="points"/><g class="text"/></g></g></g></g><g class="zerolinelayer-above"/><path class="xlines-above crisp" d="M0,0" style="fill: none;"/><path class="ylines-above crisp" d="M0,0" style="fill: none;"/><g class="overlines-above"/><g class="xaxislayer-above"><g class="xtick"><text text-anchor="middle" x="0" y="451" transform="translate(261.31,0)" style="font-family: 'Lucida Grande', 'Open Sans', verdana, arial, sans-serif; font-size: 10px; fill: rgb(0, 0, 0); fill-opacity: 1; white-space: pre;">50</text></g><g class="xtick"><text text-anchor="middle" x="0" y="451" style="font-family: 'Lucida Grande', 'Open Sans', verdana, arial, sans-serif; font-size: 10px; fill: rgb(0, 0, 0); fill-opacity: 1; white-space: pre;" transform="translate(465.71,0)">100</text></g><g class="xtick"><text text-anchor="middle" x="0" y="451" style="font-family: 'Lucida Grande', 'Open Sans', verdana, arial, sans-serif; font-size: 10px; fill: rgb(0, 0, 0); fill-opacity: 1; white-space: pre;" transform="translate(670.11,0)">150</text></g><g class="xtick"><text text-anchor="middle" x="0" y="451" style="font-family: 'Lucida Grande', 'Open Sans', verdana, arial, sans-serif; font-size: 10px; fill: rgb(0, 0, 0); fill-opacity: 1; white-space: pre;" transform="translate(874.51,0)">200</text></g><g class="xtick"><text text-anchor="middle" x="0" y="451" style="font-family: 'Lucida Grande', 'Open Sans', verdana, arial, sans-serif; font-size: 10px; fill: rgb(0, 0, 0); fill-opacity: 1; white-space: pre;" transform="translate(1078.9099999999999,0)">250</text></g></g><g class="yaxislayer-above"><g class="ytick"><text text-anchor="end" x="55" y="3.5" transform="translate(0,435)" style="font-family: 'Lucida Grande', 'Open Sans', verdana, arial, sans-serif; font-size: 10px; fill: rgb(0, 0, 0); fill-opacity: 1; white-space: pre;">0%</text></g><g class="ytick"><text text-anchor="end" x="55" y="3.5" style="font-family: 'Lucida Grande', 'Open Sans', verdana, arial, sans-serif; font-size: 10px; fill: rgb(0, 0, 0); fill-opacity: 1; white-space: pre;" transform="translate(0,358)">20%</text></g><g class="ytick"><text text-anchor="end" x="55" y="3.5" style="font-family: 'Lucida Grande', 'Open Sans', verdana, arial, sans-serif; font-size: 10px; fill: rgb(0, 0, 0); fill-opacity: 1; white-space: pre;" transform="translate(0,281)">40%</text></g><g class="ytick"><text text-anchor="end" x="55" y="3.5" style="font-family: 'Lucida Grande', 'Open Sans', verdana, arial, sans-serif; font-size: 10px; fill: rgb(0, 0, 0); fill-opacity: 1; white-space: pre;" transform="translate(0,204)">60%</text></g><g class="ytick"><text text-anchor="end" x="55" y="3.5" style="font-family: 'Lucida Grande', 'Open Sans', verdana, arial, sans-serif; font-size: 10px; fill: rgb(0, 0, 0); fill-opacity: 1; white-space: pre;" transform="translate(0,127)">80%</text></g><g class="ytick"><text text-anchor="end" x="55" y="3.5" style="font-family: 'Lucida Grande', 'Open Sans', verdana, arial, sans-serif; font-size: 10px; fill: rgb(0, 0, 0); fill-opacity: 1; white-space: pre;" transform="translate(0,50)">100%</text></g></g><g class="overaxes-above"/></g></g><g class="polarlayer"/><g class="smithlayer"/><g class="ternarylayer"/><g class="geolayer"/><g class="funnelarealayer"/><g class="pielayer"/><g class="iciclelayer"/><g class="treemaplayer"/><g class="sunburstlayer"/><g class="glimages"/><defs id="topdefs-556975"><g class="clips"/></defs><g class="layer-above"><g class="imagelayer"/><g class="shapelayer"/></g><g class="infolayer"><g class="g-gtitle"><text class="gtitle" x="550" y="25" text-anchor="middle" dy="0em" style="opacity: 1; font-family: 'Lucida Grande', 'Open Sans', verdana, arial, sans-serif; font-size: 20px; fill: rgb(68, 68, 68); fill-opacity: 1; white-space: pre;"><tspan class="line" dy="0em" x="550" y="25">Fastp: Read GC Content</tspan><tspan class="line" dy="1.3em" x="550" y="25">​<tspan style="font-size:70%" dy="-0.6em">Read 1: After filtering</tspan><tspan dy="0.42em">​</tspan></tspan></text></g><g class="g-xtitle"><text class="xtitle" x="572" y="487" text-anchor="middle" style="opacity: 0.3; font-family: 'Lucida Grande', 'Open Sans', verdana, arial, sans-serif; font-size: 14px; fill: rgb(0, 0, 0); fill-opacity: 1; white-space: pre;">Read Position</text></g><g class="g-ytitle"><text class="ytitle" transform="rotate(-90,23,242.5)" x="23" y="242.5" text-anchor="middle" style="opacity: 0.3; font-family: 'Lucida Grande', 'Open Sans', verdana, arial, sans-serif; font-size: 14px; fill: rgb(0, 0, 0); fill-opacity: 1; white-space: pre;">R1 After filtering: Base Content Percent</text></g></g></svg>