<svg class="main-svg" xmlns="http://www.w3.org/2000/svg" xmlns:xlink="http://www.w3.org/1999/xlink" width="2200" height="1000" style="" viewBox="0 0 1100 500"><rect x="0" y="0" width="1100" height="500" style="fill: rgb(255, 255, 255); fill-opacity: 1;"/><defs id="defs-971eb4"><g class="clips"><clipPath id="clip971eb4xyplot" class="plotclip"><rect width="1022" height="385"/></clipPath><clipPath class="axesclip" id="clip971eb4x"><rect x="61" y="0" width="1022" height="500"/></clipPath><clipPath class="axesclip" id="clip971eb4y"><rect x="0" y="50" width="1100" height="385"/></clipPath><clipPath class="axesclip" id="clip971eb4xy"><rect x="61" y="50" width="1022" height="385"/></clipPath></g><g class="gradients"/><g class="patterns"/></defs><g class="bglayer"/><g class="layer-below"><g class="imagelayer"/><g class="shapelayer"/></g><g class="cartesianlayer"><g class="subplot xy"><g class="layer-subplot"><g class="shapelayer"/><g class="imagelayer"/></g><g class="minor-gridlayer"><g class="x"/><g class="y"/></g><g class="gridlayer"><g class="x"><path class="xgrid crisp" transform="translate(261.31,0)" d="M0,50v385" style="stroke: rgb(0, 0, 0); stroke-opacity: 0.05; stroke-width: 1px;"/><path class="xgrid crisp" transform="translate(465.71,0)" d="M0,50v385" style="stroke: rgb(0, 0, 0); stroke-opacity: 0.05; stroke-width: 1px;"/><path class="xgrid crisp" transform="translate(670.11,0)" d="M0,50v385" style="stroke: rgb(0, 0, 0); stroke-opacity: 0.05; stroke-width: 1px;"/><path class="xgrid crisp" transform="translate(874.51,0)" d="M0,50v385" style="stroke: rgb(0, 0, 0); stroke-opacity: 0.05; stroke-width: 1px;"/><path class="xgrid crisp" transform="translate(1078.9099999999999,0)" d="M0,50v385" style="stroke: rgb(0, 0, 0); stroke-opacity: 0.05; stroke-width: 1px;"/></g><g class="y"><path class="ygrid crisp" transform="translate(0,358)" d="M61,0h1022" style="stroke: rgb(0, 0, 0); stroke-opacity: 0.05; stroke-width: 1px;"/><path class="ygrid crisp" transform="translate(0,281)" d="M61,0h1022" style="stroke: rgb(0, 0, 0); stroke-opacity: 0.05; stroke-width: 1px;"/><path class="ygrid crisp" transform="translate(0,204)" d="M61,0h1022" style="stroke: rgb(0, 0, 0); stroke-opacity: 0.05; stroke-width: 1px;"/><path class="ygrid crisp" transform="translate(0,127)" d="M61,0h1022" style="stroke: rgb(0, 0, 0); stroke-opacity: 0.05; stroke-width: 1px;"/></g></g><g class="zerolinelayer"><path class="yzl zl crisp" transform="translate(0,435)" d="M61,0h1022" style="stroke: rgb(0, 0, 0); stroke-opacity: 0.05; stroke-width: 1px;"/></g><g class="layer-between"><g class="shapelayer"/><g class="imagelayer"/></g><path class="xlines-below"/><path class="ylines-below"/><g class="overlines-below"/><g class="xaxislayer-below"/><g class="yaxislayer-below"/><g class="overaxes-below"/><g class="overplot"><g class="xy" transform="translate(61,50)" clip-path="url(#clip971eb4xyplot)"><g class="scatterlayer mlayer"><g class="trace scatter traced74ccd" style="stroke-miterlimit: 2; opacity: 1;"><g class="fills"/><g class="errorbars"/><g class="lines"><path class="js-line" d="M0,177.86L4.09,214.38L8.18,211.82L12.26,206.99L16.35,220.53L20.44,200.08L24.53,221.27L28.62,202.78L32.7,228.07L36.79,210.5L40.88,216.72L44.97,202.64L49.06,203.94L53.14,220.19L57.23,212.34L61.32,223.85L65.41,217.47L69.5,208.96L73.58,212.23L77.67,206.92L81.76,204.97L85.85,207.92L89.94,218.4L94.02,217.96L98.11,230.55L102.2,207.94L106.29,196.36L110.38,223.27L114.46,210.69L118.55,207.1L122.64,234.29L126.73,231.15L130.82,229.52L134.9,226.7L138.99,212.43L143.08,220.24L147.17,226.06L151.26,224.01L155.34,228.35L159.43,211.63L163.52,221.91L167.61,214.28L171.7,215.86L179.87,217.03L183.96,226.84L188.05,220.77L192.14,222.96L196.22,230.01L200.31,223.79L204.4,221.72L208.49,217.77L212.58,209.29L216.66,212.08L220.75,213.29L224.84,204.94L228.93,225.38L233.02,214.47L237.1,193.26L241.19,204.48L249.37,202.16L253.46,206.45L257.54,215.11L261.63,208.07L265.72,196.01L269.81,204.47L273.9,200.56L277.98,211.38L282.07,214.64L286.16,205.14L290.25,205.18L294.34,211.93L298.42,228.35L302.51,222.09L306.6,207.91L310.69,216.04L314.78,217.83L318.86,222.59L322.95,239.1L327.04,207.89L331.13,230.51L335.22,213.54L339.3,222.12L343.39,212.31L347.48,212.63L351.57,201.3L355.66,212.67L359.74,209.06L363.83,210.26L367.92,229.11L372.01,199.92L376.1,221.65L380.18,230.67L384.27,231.66L388.36,218.49L392.45,226.07L396.54,218.94L400.62,213.69L404.71,222.32L408.8,221.43L412.89,209.78L416.98,222.69L421.06,207.05L425.15,212.87L429.24,203L433.33,195.9L437.42,208.32L441.5,196.88L445.59,196.96L449.68,204.07L453.77,200.7L457.86,201.17L461.94,201.93L466.03,187.41L470.12,198.4L474.21,202.95L478.3,210.17L482.38,221.5L486.47,219.15L490.56,231.7L494.65,240.5L498.74,228.32L502.82,233.81L506.91,233.7L511,248.24L515.09,252.45L519.18,227.49L523.26,228.83L527.35,231.81L531.44,241.88L535.53,241.78L539.62,232.68L543.7,245.41L547.79,218.34L551.88,219.09L555.97,232.03L560.06,218.05L564.14,224.21L568.23,222.49L572.32,217.16L576.41,203.3L580.5,220.07L584.58,205.58L588.67,215.55L592.76,221.05L596.85,204.96L600.94,213.38L605.02,213.96L609.11,215.45L613.2,205.97L617.29,216.69L621.38,212.16L625.46,201.36L629.55,208.23L633.64,218.14L637.73,205.51L641.82,205.85L645.9,200.96L649.99,219.31L654.08,210.09L658.17,202.05L662.26,226.79L666.34,204.33L670.43,201.63L674.52,216.28L678.61,217.17L682.7,206.62L686.78,198.91L690.87,216.61L694.96,213.2L699.05,220.8L703.14,213.65L707.22,206.61L711.31,213.17L715.4,214.21L719.49,213.17L723.58,219.79L727.66,221.32L731.75,212.65L735.84,216.02L744.02,206.46L748.1,228.47L756.28,211.9L760.37,217.22L764.46,211.31L768.54,216.12L772.63,207.32L776.72,217.9L780.81,215.31L784.9,216.43L788.98,203.4L793.07,222.31L797.16,204.4L801.25,209.28L805.34,213.03L809.42,229.13L813.51,217.6L817.6,218.13L821.69,209.91L825.78,226.61L829.86,207.08L833.95,220.93L838.04,218.92L842.13,222.67L846.22,206.78L850.3,220.57L854.39,221.82L858.48,218.37L862.57,208.21L866.66,218.6L870.74,217.39L874.83,217.68L878.92,216.61L883.01,224.4L887.1,202.16L891.18,214.31L895.27,207.89L899.36,234L903.45,209.43L907.54,214.11L911.62,214.6L915.71,205.95L919.8,232.5L923.89,187.52L927.98,222.39L932.06,237.51L936.15,196.88L940.24,192.08L944.33,183.42L948.42,215.16L952.5,223.02L956.59,192.56L960.68,224.26L964.77,187.45L968.86,183.63L972.94,167.57L977.03,211.15L981.12,170.32L985.21,182.32L989.3,201.65L993.38,182.64L997.47,196.74L1001.56,228.26L1005.65,196.87L1009.74,163.77L1013.82,156.3L1017.91,213.52L1022,208.28" style="vector-effect: none; fill: none; stroke: rgb(124, 181, 236); stroke-opacity: 1; stroke-width: 2px; opacity: 1;"/></g><g class="points"/><g class="text"/></g></g></g></g><g class="zerolinelayer-above"/><path class="xlines-above crisp" d="M0,0" style="fill: none;"/><path class="ylines-above crisp" d="M0,0" style="fill: none;"/><g class="overlines-above"/><g class="xaxislayer-above"><g class="xtick"><text text-anchor="middle" x="0" y="451" transform="translate(261.31,0)" style="font-family: 'Lucida Grande', 'Open Sans', verdana, arial, sans-serif; font-size: 10px; fill: rgb(0, 0, 0); fill-opacity: 1; white-space: pre;">50</text></g><g class="xtick"><text text-anchor="middle" x="0" y="451" style="font-family: 'Lucida Grande', 'Open Sans', verdana, arial, sans-serif; font-size: 10px; fill: rgb(0, 0, 0); fill-opacity: 1; white-space: pre;" transform="translate(465.71,0)">100</text></g><g class="xtick"><text text-anchor="middle" x="0" y="451" style="font-family: 'Lucida Grande', 'Open Sans', verdana, arial, sans-serif; font-size: 10px; fill: rgb(0, 0, 0); fill-opacity: 1; white-space: pre;" transform="translate(670.11,0)">150</text></g><g class="xtick"><text text-anchor="middle" x="0" y="451" style="font-family: 'Lucida Grande', 'Open Sans', verdana, arial, sans-serif; font-size: 10px; fill: rgb(0, 0, 0); fill-opacity: 1; white-space: pre;" transform="translate(874.51,0)">200</text></g><g class="xtick"><text text-anchor="middle" x="0" y="451" style="font-family: 'Lucida Grande', 'Open Sans', verdana, arial, sans-serif; font-size: 10px; fill: rgb(0, 0, 0); fill-opacity: 1; white-space: pre;" transform="translate(1078.9099999999999,0)">250</text></g></g><g class="yaxislayer-above"><g class="ytick"><text text-anchor="end" x="55" y="3.5" transform="translate(0,435)" style="font-family: 'Lucida Grande', 'Open Sans', verdana, arial, sans-serif; font-size: 10px; fill: rgb(0, 0, 0); fill-opacity: 1; white-space: pre;">0%</text></g><g class="ytick"><text text-anchor="end" x="55" y="3.5" style="font-family: 'Lucida Grande', 'Open Sans', verdana, arial, sans-serif; font-size: 10px; fill: rgb(0, 0, 0); fill-opacity: 1; white-space: pre;" transform="translate(0,358)">20%</text></g><g class="ytick"><text text-anchor="end" x="55" y="3.5" style="font-family: 'Lucida Grande', 'Open Sans', verdana, arial, sans-serif; font-size: 10px; fill: rgb(0, 0, 0); fill-opacity: 1; white-space: pre;" transform="translate(0,281)">40%</text></g><g class="ytick"><text text-anchor="end" x="55" y="3.5" style="font-family: 'Lucida Grande', 'Open Sans', verdana, arial, sans-serif; font-size: 10px; fill: rgb(0, 0, 0); fill-opacity: 1; white-space: pre;" transform="translate(0,204)">60%</text></g><g class="ytick"><text text-anchor="end" x="55" y="3.5" style="font-family: 'Lucida Grande', 'Open Sans', verdana, arial, sans-serif; font-size: 10px; fill: rgb(0, 0, 0); fill-opacity: 1; white-space: pre;" transform="translate(0,127)">80%</text></g><g class="ytick"><text text-anchor="end" x="55" y="3.5" style="font-family: 'Lucida Grande', 'Open Sans', verdana, arial, sans-serif; font-size: 10px; fill: rgb(0, 0, 0); fill-opacity: 1; white-space: pre;" transform="translate(0,50)">100%</text></g></g><g class="overaxes-above"/></g></g><g class="polarlayer"/><g class="smithlayer"/><g class="ternarylayer"/><g class="geolayer"/><g class="funnelarealayer"/><g class="pielayer"/><g class="iciclelayer"/><g class="treemaplayer"/><g class="sunburstlayer"/><g class="glimages"/><defs id="topdefs-971eb4"><g class="clips"/></defs><g class="layer-above"><g class="imagelayer"/><g class="shapelayer"/></g><g class="infolayer"><g class="g-gtitle"><text class="gtitle" x="550" y="25" text-anchor="middle" dy="0em" style="opacity: 1; font-family: 'Lucida Grande', 'Open Sans', verdana, arial, sans-serif; font-size: 20px; fill: rgb(68, 68, 68); fill-opacity: 1; white-space: pre;"><tspan class="line" dy="0em" x="550" y="25">Fastp: Read GC Content</tspan><tspan class="line" dy="1.3em" x="550" y="25">​<tspan style="font-size:70%" dy="-0.6em">Read 2: After filtering</tspan><tspan dy="0.42em">​</tspan></tspan></text></g><g class="g-xtitle"><text class="xtitle" x="572" y="487" text-anchor="middle" style="opacity: 0.3; font-family: 'Lucida Grande', 'Open Sans', verdana, arial, sans-serif; font-size: 14px; fill: rgb(0, 0, 0); fill-opacity: 1; white-space: pre;">Read Position</text></g><g class="g-ytitle"><text class="ytitle" transform="rotate(-90,23,242.5)" x="23" y="242.5" text-anchor="middle" style="opacity: 0.3; font-family: 'Lucida Grande', 'Open Sans', verdana, arial, sans-serif; font-size: 14px; fill: rgb(0, 0, 0); fill-opacity: 1; white-space: pre;">R2 After filtering: Base Content Percent</text></g></g></svg>