<svg class="main-svg" xmlns="http://www.w3.org/2000/svg" xmlns:xlink="http://www.w3.org/1999/xlink" width="2200" height="1010" style="" viewBox="0 0 1100 505"><rect x="0" y="0" width="1100" height="505" style="fill: rgb(255, 255, 255); fill-opacity: 1;"/><defs id="defs-22c081"><g class="clips"><clipPath id="clip22c081xyplot" class="plotclip"><rect width="1025" height="390"/></clipPath><clipPath class="axesclip" id="clip22c081x"><rect x="60" y="0" width="1025" height="505"/></clipPath><clipPath class="axesclip" id="clip22c081y"><rect x="0" y="50" width="1100" height="390"/></clipPath><clipPath class="axesclip" id="clip22c081xy"><rect x="60" y="50" width="1025" height="390"/></clipPath></g><g class="gradients"/><g class="patterns"/></defs><g class="bglayer"/><g class="layer-below"><g class="imagelayer"/><g class="shapelayer"/></g><g class="cartesianlayer"><g class="subplot xy"><g class="layer-subplot"><g class="shapelayer"/><g class="imagelayer"/></g><g class="minor-gridlayer"><g class="x"/><g class="y"/></g><g class="gridlayer"><g class="x"><path class="xgrid crisp" transform="translate(185.61,0)" d="M0,50v390" style="stroke: rgb(0, 0, 0); stroke-opacity: 0.05; stroke-width: 1px;"/><path class="xgrid crisp" transform="translate(311.23,0)" d="M0,50v390" style="stroke: rgb(0, 0, 0); stroke-opacity: 0.05; stroke-width: 1px;"/><path class="xgrid crisp" transform="translate(436.84,0)" d="M0,50v390" style="stroke: rgb(0, 0, 0); stroke-opacity: 0.05; stroke-width: 1px;"/><path class="xgrid crisp" transform="translate(562.45,0)" d="M0,50v390" style="stroke: rgb(0, 0, 0); stroke-opacity: 0.05; stroke-width: 1px;"/><path class="xgrid crisp" transform="translate(688.06,0)" d="M0,50v390" style="stroke: rgb(0, 0, 0); stroke-opacity: 0.05; stroke-width: 1px;"/><path class="xgrid crisp" transform="translate(813.68,0)" d="M0,50v390" style="stroke: rgb(0, 0, 0); stroke-opacity: 0.05; stroke-width: 1px;"/><path class="xgrid crisp" transform="translate(939.29,0)" d="M0,50v390" style="stroke: rgb(0, 0, 0); stroke-opacity: 0.05; stroke-width: 1px;"/><path class="xgrid crisp" transform="translate(1064.9,0)" d="M0,50v390" style="stroke: rgb(0, 0, 0); stroke-opacity: 0.05; stroke-width: 1px;"/></g><g class="y"><path class="ygrid crisp" transform="translate(0,392.21)" d="M60,0h1025" style="stroke: rgb(0, 0, 0); stroke-opacity: 0.05; stroke-width: 1px;"/><path class="ygrid crisp" transform="translate(0,344.41)" d="M60,0h1025" style="stroke: rgb(0, 0, 0); stroke-opacity: 0.05; stroke-width: 1px;"/><path class="ygrid crisp" transform="translate(0,296.62)" d="M60,0h1025" style="stroke: rgb(0, 0, 0); stroke-opacity: 0.05; stroke-width: 1px;"/><path class="ygrid crisp" transform="translate(0,248.82)" d="M60,0h1025" style="stroke: rgb(0, 0, 0); stroke-opacity: 0.05; stroke-width: 1px;"/><path class="ygrid crisp" transform="translate(0,201.03)" d="M60,0h1025" style="stroke: rgb(0, 0, 0); stroke-opacity: 0.05; stroke-width: 1px;"/><path class="ygrid crisp" transform="translate(0,153.24)" d="M60,0h1025" style="stroke: rgb(0, 0, 0); stroke-opacity: 0.05; stroke-width: 1px;"/><path class="ygrid crisp" transform="translate(0,105.44)" d="M60,0h1025" style="stroke: rgb(0, 0, 0); stroke-opacity: 0.05; stroke-width: 1px;"/><path class="ygrid crisp" transform="translate(0,57.65)" d="M60,0h1025" style="stroke: rgb(0, 0, 0); stroke-opacity: 0.05; stroke-width: 1px;"/></g></g><g class="zerolinelayer"><path class="xzl zl crisp" transform="translate(60,0)" d="M0,50v390" style="stroke: rgb(0, 0, 0); stroke-opacity: 0.05; stroke-width: 1px;"/><path class="yzl zl crisp" transform="translate(0,440)" d="M60,0h1025" style="stroke: rgb(0, 0, 0); stroke-opacity: 0.05; stroke-width: 1px;"/></g><g class="layer-between"><g class="shapelayer"/><g class="imagelayer"/></g><path class="xlines-below"/><path class="ylines-below"/><g class="overlines-below"/><g class="xaxislayer-below"/><g class="yaxislayer-below"/><g class="overaxes-below"/><g class="overplot"><g class="xy" transform="translate(60,50)" clip-path="url(#clip22c081xyplot)"><g class="scatterlayer mlayer"><g class="trace scatter trace2c3f9a" style="stroke-miterlimit: 2; opacity: 1;"><g class="fills"/><g class="errorbars"/><g class="lines"/><g class="points"><path class="point" transform="translate(301.47,275.29)" d="M5,0A5,5 0 1,1 0,-5A5,5 0 0,1 5,0Z" style="opacity: 1; stroke-width: 1px; fill: rgb(124, 181, 236); fill-opacity: 0.5; stroke: rgb(0, 0, 0); stroke-opacity: 0.2;"/></g><g class="text"><g class="textpoint" transform="translate(0,2)"><text x="301.47" y="275.29" text-anchor="middle" style="font-family: 'Lucida Grande', 'Open Sans', verdana, arial, sans-serif; font-size: 8px; fill: rgb(68, 68, 68); fill-opacity: 1; white-space: pre;">S3.recal.table</text></g></g></g><g class="trace scatter trace231a6b" style="stroke-miterlimit: 2; opacity: 1;"><g class="fills"/><g class="errorbars"/><g class="lines"/><g class="points"><path class="point" transform="translate(326.59,284.85)" d="M5,0A5,5 0 1,1 0,-5A5,5 0 0,1 5,0Z" style="opacity: 1; stroke-width: 1px; fill: rgb(124, 181, 236); fill-opacity: 0.5; stroke: rgb(0, 0, 0); stroke-opacity: 0.2;"/></g><g class="text"><g class="textpoint" transform="translate(0,2)"><text x="326.59" y="284.85" text-anchor="middle" style="font-family: 'Lucida Grande', 'Open Sans', verdana, arial, sans-serif; font-size: 8px; fill: rgb(68, 68, 68); fill-opacity: 1; white-space: pre;">S3.recal.table</text></g></g></g><g class="trace scatter trace716d8c" style="stroke-miterlimit: 2; opacity: 1;"><g class="fills"/><g class="errorbars"/><g class="lines"/><g class="points"><path class="point" transform="translate(351.72,284.85)" d="M5,0A5,5 0 1,1 0,-5A5,5 0 0,1 5,0Z" style="opacity: 1; stroke-width: 1px; fill: rgb(124, 181, 236); fill-opacity: 0.5; stroke: rgb(0, 0, 0); stroke-opacity: 0.2;"/></g><g class="text"><g class="textpoint" transform="translate(0,2)"><text x="351.72" y="284.85" text-anchor="middle" style="font-family: 'Lucida Grande', 'Open Sans', verdana, arial, sans-serif; font-size: 8px; fill: rgb(68, 68, 68); fill-opacity: 1; white-space: pre;">S3.recal.table</text></g></g></g><g class="trace scatter traceda46ea" style="stroke-miterlimit: 2; opacity: 1;"><g class="fills"/><g class="errorbars"/><g class="lines"/><g class="points"><path class="point" transform="translate(376.84,275.29)" d="M5,0A5,5 0 1,1 0,-5A5,5 0 0,1 5,0Z" style="opacity: 1; stroke-width: 1px; fill: rgb(124, 181, 236); fill-opacity: 0.5; stroke: rgb(0, 0, 0); stroke-opacity: 0.2;"/></g><g class="text"><g class="textpoint" transform="translate(0,2)"><text x="376.84" y="275.29" text-anchor="middle" style="font-family: 'Lucida Grande', 'Open Sans', verdana, arial, sans-serif; font-size: 8px; fill: rgb(68, 68, 68); fill-opacity: 1; white-space: pre;">S3.recal.table</text></g></g></g><g class="trace scatter trace16d750" style="stroke-miterlimit: 2; opacity: 1;"><g class="fills"/><g class="errorbars"/><g class="lines"><path class="js-line" d="M401.96,246.62" style="vector-effect: none; fill: none; stroke: rgb(124, 181, 236); stroke-opacity: 0.5; stroke-width: 2px; opacity: 1;"/></g><g class="points"><path class="point" transform="translate(401.96,246.62)" d="M5,0A5,5 0 1,1 0,-5A5,5 0 0,1 5,0Z" style="opacity: 1; stroke-width: 1px; fill: rgb(124, 181, 236); fill-opacity: 0.5; stroke: rgb(0, 0, 0); stroke-opacity: 0.2;"/></g><g class="text"/></g><g class="trace scatter trace7f623a" style="stroke-miterlimit: 2; opacity: 1;"><g class="fills"/><g class="errorbars"/><g class="lines"><path class="js-line" d="M427.08,237.06" style="vector-effect: none; fill: none; stroke: rgb(124, 181, 236); stroke-opacity: 0.5; stroke-width: 2px; opacity: 1;"/></g><g class="points"><path class="point" transform="translate(427.08,237.06)" d="M5,0A5,5 0 1,1 0,-5A5,5 0 0,1 5,0Z" style="opacity: 1; stroke-width: 1px; fill: rgb(124, 181, 236); fill-opacity: 0.5; stroke: rgb(0, 0, 0); stroke-opacity: 0.2;"/></g><g class="text"/></g><g class="trace scatter trace202aa7" style="stroke-miterlimit: 2; opacity: 1;"><g class="fills"/><g class="errorbars"/><g class="lines"><path class="js-line" d="M452.21,217.94" style="vector-effect: none; fill: none; stroke: rgb(124, 181, 236); stroke-opacity: 0.5; stroke-width: 2px; opacity: 1;"/></g><g class="points"><path class="point" transform="translate(452.21,217.94)" d="M5,0A5,5 0 1,1 0,-5A5,5 0 0,1 5,0Z" style="opacity: 1; stroke-width: 1px; fill: rgb(124, 181, 236); fill-opacity: 0.5; stroke: rgb(0, 0, 0); stroke-opacity: 0.2;"/></g><g class="text"/></g><g class="trace scatter trace5e91fb" style="stroke-miterlimit: 2; opacity: 1;"><g class="fills"/><g class="errorbars"/><g class="lines"><path class="js-line" d="M477.33,208.38" style="vector-effect: none; fill: none; stroke: rgb(124, 181, 236); stroke-opacity: 0.5; stroke-width: 2px; opacity: 1;"/></g><g class="points"><path class="point" transform="translate(477.33,208.38)" d="M5,0A5,5 0 1,1 0,-5A5,5 0 0,1 5,0Z" style="opacity: 1; stroke-width: 1px; fill: rgb(124, 181, 236); fill-opacity: 0.5; stroke: rgb(0, 0, 0); stroke-opacity: 0.2;"/></g><g class="text"/></g><g class="trace scatter tracedb5a0b" style="stroke-miterlimit: 2; opacity: 1;"><g class="fills"/><g class="errorbars"/><g class="lines"><path class="js-line" d="M502.45,198.82" style="vector-effect: none; fill: none; stroke: rgb(124, 181, 236); stroke-opacity: 0.5; stroke-width: 2px; opacity: 1;"/></g><g class="points"><path class="point" transform="translate(502.45,198.82)" d="M5,0A5,5 0 1,1 0,-5A5,5 0 0,1 5,0Z" style="opacity: 1; stroke-width: 1px; fill: rgb(124, 181, 236); fill-opacity: 0.5; stroke: rgb(0, 0, 0); stroke-opacity: 0.2;"/></g><g class="text"/></g><g class="trace scatter traceed370f" style="stroke-miterlimit: 2; opacity: 1;"><g class="fills"/><g class="errorbars"/><g class="lines"><path class="js-line" d="M527.57,189.26" style="vector-effect: none; fill: none; stroke: rgb(124, 181, 236); stroke-opacity: 0.5; stroke-width: 2px; opacity: 1;"/></g><g class="points"><path class="point" transform="translate(527.57,189.26)" d="M5,0A5,5 0 1,1 0,-5A5,5 0 0,1 5,0Z" style="opacity: 1; stroke-width: 1px; fill: rgb(124, 181, 236); fill-opacity: 0.5; stroke: rgb(0, 0, 0); stroke-opacity: 0.2;"/></g><g class="text"/></g><g class="trace scatter traceb7cec5" style="stroke-miterlimit: 2; opacity: 1;"><g class="fills"/><g class="errorbars"/><g class="lines"><path class="js-line" d="M602.94,179.71" style="vector-effect: none; fill: none; stroke: rgb(124, 181, 236); stroke-opacity: 0.5; stroke-width: 2px; opacity: 1;"/></g><g class="points"><path class="point" transform="translate(602.94,179.71)" d="M5,0A5,5 0 1,1 0,-5A5,5 0 0,1 5,0Z" style="opacity: 1; stroke-width: 1px; fill: rgb(124, 181, 236); fill-opacity: 0.5; stroke: rgb(0, 0, 0); stroke-opacity: 0.2;"/></g><g class="text"/></g><g class="trace scatter trace5eafdb" style="stroke-miterlimit: 2; opacity: 1;"><g class="fills"/><g class="errorbars"/><g class="lines"><path class="js-line" d="M628.06,160.59" style="vector-effect: none; fill: none; stroke: rgb(124, 181, 236); stroke-opacity: 0.5; stroke-width: 2px; opacity: 1;"/></g><g class="points"><path class="point" transform="translate(628.06,160.59)" d="M5,0A5,5 0 1,1 0,-5A5,5 0 0,1 5,0Z" style="opacity: 1; stroke-width: 1px; fill: rgb(124, 181, 236); fill-opacity: 0.5; stroke: rgb(0, 0, 0); stroke-opacity: 0.2;"/></g><g class="text"/></g><g class="trace scatter trace4393b4" style="stroke-miterlimit: 2; opacity: 1;"><g class="fills"/><g class="errorbars"/><g class="lines"><path class="js-line" d="M653.19,151.03" style="vector-effect: none; fill: none; stroke: rgb(124, 181, 236); stroke-opacity: 0.5; stroke-width: 2px; opacity: 1;"/></g><g class="points"><path class="point" transform="translate(653.19,151.03)" d="M5,0A5,5 0 1,1 0,-5A5,5 0 0,1 5,0Z" style="opacity: 1; stroke-width: 1px; fill: rgb(124, 181, 236); fill-opacity: 0.5; stroke: rgb(0, 0, 0); stroke-opacity: 0.2;"/></g><g class="text"/></g><g class="trace scatter tracef713a3" style="stroke-miterlimit: 2; opacity: 1;"><g class="fills"/><g class="errorbars"/><g class="lines"><path class="js-line" d="M678.31,131.91" style="vector-effect: none; fill: none; stroke: rgb(124, 181, 236); stroke-opacity: 0.5; stroke-width: 2px; opacity: 1;"/></g><g class="points"><path class="point" transform="translate(678.31,131.91)" d="M5,0A5,5 0 1,1 0,-5A5,5 0 0,1 5,0Z" style="opacity: 1; stroke-width: 1px; fill: rgb(124, 181, 236); fill-opacity: 0.5; stroke: rgb(0, 0, 0); stroke-opacity: 0.2;"/></g><g class="text"/></g><g class="trace scatter trace7daa84" style="stroke-miterlimit: 2; opacity: 1;"><g class="fills"/><g class="errorbars"/><g class="lines"><path class="js-line" d="M703.43,122.35" style="vector-effect: none; fill: none; stroke: rgb(124, 181, 236); stroke-opacity: 0.5; stroke-width: 2px; opacity: 1;"/></g><g class="points"><path class="point" transform="translate(703.43,122.35)" d="M5,0A5,5 0 1,1 0,-5A5,5 0 0,1 5,0Z" style="opacity: 1; stroke-width: 1px; fill: rgb(124, 181, 236); fill-opacity: 0.5; stroke: rgb(0, 0, 0); stroke-opacity: 0.2;"/></g><g class="text"/></g><g class="trace scatter trace995f3a" style="stroke-miterlimit: 2; opacity: 1;"><g class="fills"/><g class="errorbars"/><g class="lines"><path class="js-line" d="M728.55,112.79" style="vector-effect: none; fill: none; stroke: rgb(124, 181, 236); stroke-opacity: 0.5; stroke-width: 2px; opacity: 1;"/></g><g class="points"><path class="point" transform="translate(728.55,112.79)" d="M5,0A5,5 0 1,1 0,-5A5,5 0 0,1 5,0Z" style="opacity: 1; stroke-width: 1px; fill: rgb(124, 181, 236); fill-opacity: 0.5; stroke: rgb(0, 0, 0); stroke-opacity: 0.2;"/></g><g class="text"/></g><g class="trace scatter traceaf37c9" style="stroke-miterlimit: 2; opacity: 1;"><g class="fills"/><g class="errorbars"/><g class="lines"><path class="js-line" d="M753.68,103.24" style="vector-effect: none; fill: none; stroke: rgb(124, 181, 236); stroke-opacity: 0.5; stroke-width: 2px; opacity: 1;"/></g><g class="points"><path class="point" transform="translate(753.68,103.24)" d="M5,0A5,5 0 1,1 0,-5A5,5 0 0,1 5,0Z" style="opacity: 1; stroke-width: 1px; fill: rgb(124, 181, 236); fill-opacity: 0.5; stroke: rgb(0, 0, 0); stroke-opacity: 0.2;"/></g><g class="text"/></g><g class="trace scatter trace748294" style="stroke-miterlimit: 2; opacity: 1;"><g class="fills"/><g class="errorbars"/><g class="lines"><path class="js-line" d="M778.8,93.68" style="vector-effect: none; fill: none; stroke: rgb(124, 181, 236); stroke-opacity: 0.5; stroke-width: 2px; opacity: 1;"/></g><g class="points"><path class="point" transform="translate(778.8,93.68)" d="M5,0A5,5 0 1,1 0,-5A5,5 0 0,1 5,0Z" style="opacity: 1; stroke-width: 1px; fill: rgb(124, 181, 236); fill-opacity: 0.5; stroke: rgb(0, 0, 0); stroke-opacity: 0.2;"/></g><g class="text"/></g><g class="trace scatter traceb50821" style="stroke-miterlimit: 2; opacity: 1;"><g class="fills"/><g class="errorbars"/><g class="lines"><path class="js-line" d="M803.92,84.12" style="vector-effect: none; fill: none; stroke: rgb(124, 181, 236); stroke-opacity: 0.5; stroke-width: 2px; opacity: 1;"/></g><g class="points"><path class="point" transform="translate(803.92,84.12)" d="M5,0A5,5 0 1,1 0,-5A5,5 0 0,1 5,0Z" style="opacity: 1; stroke-width: 1px; fill: rgb(124, 181, 236); fill-opacity: 0.5; stroke: rgb(0, 0, 0); stroke-opacity: 0.2;"/></g><g class="text"/></g><g class="trace scatter traced4feb1" style="stroke-miterlimit: 2; opacity: 1;"><g class="fills"/><g class="errorbars"/><g class="lines"><path class="js-line" d="M829.04,93.68" style="vector-effect: none; fill: none; stroke: rgb(124, 181, 236); stroke-opacity: 0.5; stroke-width: 2px; opacity: 1;"/></g><g class="points"><path class="point" transform="translate(829.04,93.68)" d="M5,0A5,5 0 1,1 0,-5A5,5 0 0,1 5,0Z" style="opacity: 1; stroke-width: 1px; fill: rgb(124, 181, 236); fill-opacity: 0.5; stroke: rgb(0, 0, 0); stroke-opacity: 0.2;"/></g><g class="text"/></g><g class="trace scatter trace183cf5" style="stroke-miterlimit: 2; opacity: 1;"><g class="fills"/><g class="errorbars"/><g class="lines"><path class="js-line" d="M854.17,93.68" style="vector-effect: none; fill: none; stroke: rgb(124, 181, 236); stroke-opacity: 0.5; stroke-width: 2px; opacity: 1;"/></g><g class="points"><path class="point" transform="translate(854.17,93.68)" d="M5,0A5,5 0 1,1 0,-5A5,5 0 0,1 5,0Z" style="opacity: 1; stroke-width: 1px; fill: rgb(124, 181, 236); fill-opacity: 0.5; stroke: rgb(0, 0, 0); stroke-opacity: 0.2;"/></g><g class="text"/></g><g class="trace scatter traced59bf4" style="stroke-miterlimit: 2; opacity: 1;"><g class="fills"/><g class="errorbars"/><g class="lines"><path class="js-line" d="M879.29,65" style="vector-effect: none; fill: none; stroke: rgb(124, 181, 236); stroke-opacity: 0.5; stroke-width: 2px; opacity: 1;"/></g><g class="points"><path class="point" transform="translate(879.29,65)" d="M5,0A5,5 0 1,1 0,-5A5,5 0 0,1 5,0Z" style="opacity: 1; stroke-width: 1px; fill: rgb(124, 181, 236); fill-opacity: 0.5; stroke: rgb(0, 0, 0); stroke-opacity: 0.2;"/></g><g class="text"/></g><g class="trace scatter tracef4b3d0" style="stroke-miterlimit: 2; opacity: 1;"><g class="fills"/><g class="errorbars"/><g class="lines"><path class="js-line" d="M904.41,55.44" style="vector-effect: none; fill: none; stroke: rgb(124, 181, 236); stroke-opacity: 0.5; stroke-width: 2px; opacity: 1;"/></g><g class="points"><path class="point" transform="translate(904.41,55.44)" d="M5,0A5,5 0 1,1 0,-5A5,5 0 0,1 5,0Z" style="opacity: 1; stroke-width: 1px; fill: rgb(124, 181, 236); fill-opacity: 0.5; stroke: rgb(0, 0, 0); stroke-opacity: 0.2;"/></g><g class="text"/></g><g class="trace scatter traceaca4c9" style="stroke-miterlimit: 2; opacity: 1;"><g class="fills"/><g class="errorbars"/><g class="lines"/><g class="points"><path class="point" transform="translate(929.53,55.44)" d="M5,0A5,5 0 1,1 0,-5A5,5 0 0,1 5,0Z" style="opacity: 1; stroke-width: 1px; fill: rgb(124, 181, 236); fill-opacity: 0.5; stroke: rgb(0, 0, 0); stroke-opacity: 0.2;"/></g><g class="text"><g class="textpoint" transform="translate(0,2)"><text x="929.53" y="55.44" text-anchor="middle" style="font-family: 'Lucida Grande', 'Open Sans', verdana, arial, sans-serif; font-size: 8px; fill: rgb(68, 68, 68); fill-opacity: 1; white-space: pre;">S3.recal.table</text></g></g></g><g class="trace scatter tracec591b5" style="stroke-miterlimit: 2; opacity: 1;"><g class="fills"/><g class="errorbars"/><g class="lines"/><g class="points"><path class="point" transform="translate(954.66,55.44)" d="M5,0A5,5 0 1,1 0,-5A5,5 0 0,1 5,0Z" style="opacity: 1; stroke-width: 1px; fill: rgb(124, 181, 236); fill-opacity: 0.5; stroke: rgb(0, 0, 0); stroke-opacity: 0.2;"/></g><g class="text"><g class="textpoint" transform="translate(0,2)"><text x="954.66" y="55.44" text-anchor="middle" style="font-family: 'Lucida Grande', 'Open Sans', verdana, arial, sans-serif; font-size: 8px; fill: rgb(68, 68, 68); fill-opacity: 1; white-space: pre;">S3.recal.table</text></g></g></g><g class="trace scatter trace6bc816" style="stroke-miterlimit: 2; opacity: 1;"><g class="fills"/><g class="errorbars"/><g class="lines"/><g class="points"><path class="point" transform="translate(979.78,55.44)" d="M5,0A5,5 0 1,1 0,-5A5,5 0 0,1 5,0Z" style="opacity: 1; stroke-width: 1px; fill: rgb(124, 181, 236); fill-opacity: 0.5; stroke: rgb(0, 0, 0); stroke-opacity: 0.2;"/></g><g class="text"><g class="textpoint" transform="translate(0,2)"><text x="979.78" y="55.44" text-anchor="middle" style="font-family: 'Lucida Grande', 'Open Sans', verdana, arial, sans-serif; font-size: 8px; fill: rgb(68, 68, 68); fill-opacity: 1; white-space: pre;">S3.recal.table</text></g></g></g><g class="trace scatter traceb29162" style="stroke-miterlimit: 2; opacity: 1;"><g class="fills"/><g class="errorbars"/><g class="lines"/><g class="points"><path class="point" transform="translate(1004.9,7.65)" d="M5,0A5,5 0 1,1 0,-5A5,5 0 0,1 5,0Z" style="opacity: 1; stroke-width: 1px; fill: rgb(124, 181, 236); fill-opacity: 0.5; stroke: rgb(0, 0, 0); stroke-opacity: 0.2;"/></g><g class="text"><g class="textpoint" transform="translate(0,2)"><text x="1004.9" y="7.65" text-anchor="middle" style="font-family: 'Lucida Grande', 'Open Sans', verdana, arial, sans-serif; font-size: 8px; fill: rgb(68, 68, 68); fill-opacity: 1; white-space: pre;">S3.recal.table</text></g></g></g></g></g></g><g class="zerolinelayer-above"/><path class="xlines-above crisp" d="M0,0" style="fill: none;"/><path class="ylines-above crisp" d="M0,0" style="fill: none;"/><g class="overlines-above"/><g class="xaxislayer-above"><g class="xtick"><text text-anchor="middle" x="0" y="456" transform="translate(60,0)" style="font-family: 'Lucida Grande', 'Open Sans', verdana, arial, sans-serif; font-size: 10px; fill: rgb(0, 0, 0); fill-opacity: 1; white-space: pre;">0</text></g><g class="xtick"><text text-anchor="middle" x="0" y="456" style="font-family: 'Lucida Grande', 'Open Sans', verdana, arial, sans-serif; font-size: 10px; fill: rgb(0, 0, 0); fill-opacity: 1; white-space: pre;" transform="translate(185.61,0)">5</text></g><g class="xtick"><text text-anchor="middle" x="0" y="456" style="font-family: 'Lucida Grande', 'Open Sans', verdana, arial, sans-serif; font-size: 10px; fill: rgb(0, 0, 0); fill-opacity: 1; white-space: pre;" transform="translate(311.23,0)">10</text></g><g class="xtick"><text text-anchor="middle" x="0" y="456" style="font-family: 'Lucida Grande', 'Open Sans', verdana, arial, sans-serif; font-size: 10px; fill: rgb(0, 0, 0); fill-opacity: 1; white-space: pre;" transform="translate(436.84,0)">15</text></g><g class="xtick"><text text-anchor="middle" x="0" y="456" style="font-family: 'Lucida Grande', 'Open Sans', verdana, arial, sans-serif; font-size: 10px; fill: rgb(0, 0, 0); fill-opacity: 1; white-space: pre;" transform="translate(562.45,0)">20</text></g><g class="xtick"><text text-anchor="middle" x="0" y="456" style="font-family: 'Lucida Grande', 'Open Sans', verdana, arial, sans-serif; font-size: 10px; fill: rgb(0, 0, 0); fill-opacity: 1; white-space: pre;" transform="translate(688.06,0)">25</text></g><g class="xtick"><text text-anchor="middle" x="0" y="456" style="font-family: 'Lucida Grande', 'Open Sans', verdana, arial, sans-serif; font-size: 10px; fill: rgb(0, 0, 0); fill-opacity: 1; white-space: pre;" transform="translate(813.68,0)">30</text></g><g class="xtick"><text text-anchor="middle" x="0" y="456" style="font-family: 'Lucida Grande', 'Open Sans', verdana, arial, sans-serif; font-size: 10px; fill: rgb(0, 0, 0); fill-opacity: 1; white-space: pre;" transform="translate(939.29,0)">35</text></g><g class="xtick"><text text-anchor="middle" x="0" y="456" style="font-family: 'Lucida Grande', 'Open Sans', verdana, arial, sans-serif; font-size: 10px; fill: rgb(0, 0, 0); fill-opacity: 1; white-space: pre;" transform="translate(1064.9,0)">40</text></g></g><g class="yaxislayer-above"><g class="ytick"><text text-anchor="end" x="54" y="3.5" transform="translate(0,440)" style="font-family: 'Lucida Grande', 'Open Sans', verdana, arial, sans-serif; font-size: 10px; fill: rgb(0, 0, 0); fill-opacity: 1; white-space: pre;">0</text></g><g class="ytick"><text text-anchor="end" x="54" y="3.5" style="font-family: 'Lucida Grande', 'Open Sans', verdana, arial, sans-serif; font-size: 10px; fill: rgb(0, 0, 0); fill-opacity: 1; white-space: pre;" transform="translate(0,392.21)">5</text></g><g class="ytick"><text text-anchor="end" x="54" y="3.5" style="font-family: 'Lucida Grande', 'Open Sans', verdana, arial, sans-serif; font-size: 10px; fill: rgb(0, 0, 0); fill-opacity: 1; white-space: pre;" transform="translate(0,344.41)">10</text></g><g class="ytick"><text text-anchor="end" x="54" y="3.5" style="font-family: 'Lucida Grande', 'Open Sans', verdana, arial, sans-serif; font-size: 10px; fill: rgb(0, 0, 0); fill-opacity: 1; white-space: pre;" transform="translate(0,296.62)">15</text></g><g class="ytick"><text text-anchor="end" x="54" y="3.5" style="font-family: 'Lucida Grande', 'Open Sans', verdana, arial, sans-serif; font-size: 10px; fill: rgb(0, 0, 0); fill-opacity: 1; white-space: pre;" transform="translate(0,248.82)">20</text></g><g class="ytick"><text text-anchor="end" x="54" y="3.5" style="font-family: 'Lucida Grande', 'Open Sans', verdana, arial, sans-serif; font-size: 10px; fill: rgb(0, 0, 0); fill-opacity: 1; white-space: pre;" transform="translate(0,201.03)">25</text></g><g class="ytick"><text text-anchor="end" x="54" y="3.5" style="font-family: 'Lucida Grande', 'Open Sans', verdana, arial, sans-serif; font-size: 10px; fill: rgb(0, 0, 0); fill-opacity: 1; white-space: pre;" transform="translate(0,153.24)">30</text></g><g class="ytick"><text text-anchor="end" x="54" y="3.5" style="font-family: 'Lucida Grande', 'Open Sans', verdana, arial, sans-serif; font-size: 10px; fill: rgb(0, 0, 0); fill-opacity: 1; white-space: pre;" transform="translate(0,105.44)">35</text></g><g class="ytick"><text text-anchor="end" x="54" y="3.5" style="font-family: 'Lucida Grande', 'Open Sans', verdana, arial, sans-serif; font-size: 10px; fill: rgb(0, 0, 0); fill-opacity: 1; white-space: pre;" transform="translate(0,57.65)">40</text></g></g><g class="overaxes-above"/></g></g><g class="polarlayer"/><g class="smithlayer"/><g class="ternarylayer"/><g class="geolayer"/><g class="funnelarealayer"/><g class="pielayer"/><g class="iciclelayer"/><g class="treemaplayer"/><g class="sunburstlayer"/><g class="glimages"/><defs id="topdefs-22c081"><g class="clips"/></defs><g class="layer-above"><g class="imagelayer"/><g class="shapelayer"/></g><g class="infolayer"><g class="g-gtitle"><text class="gtitle" x="550" y="25" text-anchor="middle" dy="0em" style="opacity: 1; font-family: 'Lucida Grande', 'Open Sans', verdana, arial, sans-serif; font-size: 20px; fill: rgb(68, 68, 68); fill-opacity: 1; white-space: pre;"><tspan class="line" dy="0em" x="550" y="25">Reported vs. Empirical Quality</tspan><tspan class="line" dy="1.3em" x="550" y="25">​<tspan style="font-size:70%" dy="-0.6em">27 points</tspan><tspan dy="0.42em">​</tspan></tspan></text></g><g class="g-xtitle"><text class="xtitle" x="572.5" y="492" text-anchor="middle" style="opacity: 0.3; font-family: 'Lucida Grande', 'Open Sans', verdana, arial, sans-serif; font-size: 14px; fill: rgb(0, 0, 0); fill-opacity: 1; white-space: pre;">Reported quality score</text></g><g class="g-ytitle"><text class="ytitle" transform="rotate(-90,22,245)" x="22" y="245" text-anchor="middle" style="opacity: 0.3; font-family: 'Lucida Grande', 'Open Sans', verdana, arial, sans-serif; font-size: 14px; fill: rgb(0, 0, 0); fill-opacity: 1; white-space: pre;">Empirical quality score</text></g></g></svg>